<?xml version="1.0" standalone="no"?>
<!DOCTYPE svg PUBLIC "-//W3C//DTD SVG 20010904//EN"
 "http://www.w3.org/TR/2001/REC-SVG-20010904/DTD/svg10.dtd">
<svg version="1.0" xmlns="http://www.w3.org/2000/svg"
 width="512.000000pt" height="512.000000pt" viewBox="0 0 512.000000 512.000000"
 preserveAspectRatio="xMidYMid meet">

<g transform="translate(0.000000,512.000000) scale(0.100000,-0.100000)"
fill="#000000" stroke="none">
<path d="M968 4033 c-20 -23 -743 -1311 -752 -1339 -4 -14 1 -27 16 -40 44
-39 328 -205 346 -202 19 3 17 0 466 800 221 394 306 553 301 567 -3 12 -77
63 -180 125 -95 58 -175 106 -178 106 -2 0 -11 -8 -19 -17z"/>
<path d="M4065 4012 c-33 -21 -110 -69 -172 -106 -63 -38 -115 -76 -118 -87
-5 -14 87 -187 326 -612 420 -749 421 -751 442 -755 18 -4 306 166 346 204
l24 23 -24 48 c-48 94 -721 1288 -737 1306 -8 9 -18 17 -21 17 -3 0 -33 -17
-66 -38z"/>
<path d="M2505 3669 c-126 -13 -328 -48 -378 -65 -22 -8 -50 -22 -60 -32 -26
-23 -162 -214 -292 -410 -103 -154 -109 -166 -113 -222 -5 -65 -10 -60 77 -74
47 -8 153 19 225 57 62 33 144 107 229 209 61 73 181 137 273 145 54 4 66 1
139 -35 354 -173 828 -481 1229 -797 173 -136 186 -145 207 -145 20 0 309 237
309 253 -1 27 -588 1052 -601 1050 -8 -1 -39 -9 -69 -18 -82 -24 -225 -15
-375 23 -67 17 -163 39 -215 47 -113 20 -454 28 -585 14z"/>
<path d="M1053 3065 l-300 -534 94 -116 95 -116 22 19 c45 41 89 57 161 56 96
0 163 -36 221 -121 l41 -60 51 57 c60 68 102 90 169 90 69 0 134 -25 186 -71
55 -48 86 -112 94 -194 l6 -63 39 -6 c121 -20 218 -130 234 -268 l6 -56 44 -6
c60 -8 113 -37 157 -85 48 -53 67 -92 74 -151 8 -67 -2 -108 -42 -175 -20 -32
-34 -59 -33 -60 2 -2 80 -20 173 -40 210 -47 327 -53 390 -18 44 23 128 108
123 123 -2 6 -102 58 -223 116 -121 58 -226 111 -232 116 -16 13 -17 60 -1 76
7 7 20 12 29 12 10 0 102 -42 206 -93 268 -133 292 -142 389 -142 50 0 91 5
107 14 50 27 87 152 52 181 -9 7 -139 84 -288 171 -279 161 -315 189 -291 226
27 44 47 35 454 -206 173 -102 201 -115 250 -119 74 -5 147 22 177 66 27 41
40 115 25 147 -7 15 -123 91 -345 224 -184 110 -339 206 -345 213 -6 7 -13 25
-17 40 -6 24 -4 26 35 33 34 6 47 3 78 -18 83 -57 670 -404 701 -415 82 -29
169 4 208 78 30 56 29 103 -2 155 -23 40 -188 175 -510 416 -280 210 -642 434
-937 580 l-87 43 -73 -23 c-70 -23 -77 -28 -198 -150 -177 -179 -283 -237
-456 -248 -95 -7 -139 5 -180 48 -27 28 -29 36 -29 102 0 62 5 83 36 147 20
41 81 143 137 226 56 83 102 154 102 157 0 2 -30 8 -67 12 -142 15 -300 67
-384 126 l-26 18 -300 -534z"/>
<path d="M1041 2244 c-22 -19 -61 -67 -88 -106 -39 -57 -48 -78 -47 -112 2
-96 67 -166 160 -174 52 -4 58 -3 90 29 20 19 58 67 85 107 41 61 49 81 49
119 0 91 -79 173 -167 173 -35 0 -50 -6 -82 -36z"/>
<path d="M1550 2218 c-33 -23 -303 -380 -340 -450 -55 -104 12 -233 127 -246
83 -9 84 -9 332 333 113 155 130 194 112 255 -32 108 -150 163 -231 108z"/>
<path d="M1839 1895 c-15 -8 -76 -81 -137 -162 -185 -249 -191 -265 -153 -349
27 -59 80 -96 145 -102 45 -4 56 -1 83 22 42 35 263 342 279 387 28 78 -20
166 -108 204 -46 19 -75 19 -109 0z"/>
<path d="M2116 1561 c-37 -25 -202 -252 -211 -291 -7 -32 8 -89 33 -128 21
-32 93 -72 131 -72 56 0 89 27 181 151 96 129 105 148 97 210 -14 106 -150
183 -231 130z"/>
</g>
</svg>
